<svg xmlns="http://www.w3.org/2000/svg" viewBox="0 0 800.000000 800.000000" >

<g transform="translate(0.000000,800.000000) scale(0.100000,-0.100000)"
fill="#C81919" stroke="none">
<path d="M5261 5038 c-5 -13 -189 -464 -409 -1003 -220 -539 -411 -1008 -425
-1043 l-26 -63 155 3 156 3 335 820 c184 451 379 929 433 1063 l99 242 -155 0
c-151 0 -155 -1 -163 -22z"/>
<path d="M1320 4755 l0 -175 250 0 250 0 0 -690 0 -690 215 0 215 0 2 688 3
687 248 3 247 2 0 175 0 175 -715 0 -715 0 0 -175z"/>
<path d="M2923 4323 c4 -675 1 -650 74 -803 44 -93 166 -219 258 -267 244
-128 577 -133 821 -12 180 88 295 231 344 423 19 75 20 112 20 673 l0 593
-209 0 -210 0 -3 -572 c-3 -568 -3 -574 -26 -629 -29 -73 -82 -133 -146 -167
-46 -25 -61 -27 -161 -27 -91 0 -118 4 -156 21 -61 29 -116 85 -148 153 l-26
56 -3 583 -3 582 -215 0 -215 0 4 -607z"/>
<path d="M5915 4444 c-184 -29 -372 -153 -463 -307 -83 -138 -113 -329 -78
-482 77 -326 391 -540 726 -495 103 14 230 56 307 101 56 34 183 148 183 166
0 5 -64 35 -141 66 l-141 58 -46 -35 c-72 -56 -142 -79 -247 -79 -70 -1 -103
4 -147 22 -74 29 -147 95 -187 170 l-32 61 498 2 498 3 0 115 c0 90 -5 130
-22 185 -81 257 -317 438 -586 449 -50 3 -105 2 -122 0z m236 -306 c31 -14 76
-43 99 -64 42 -38 90 -104 90 -124 0 -7 -114 -10 -335 -10 -231 0 -335 3 -335
11 0 18 57 94 95 127 106 93 261 117 386 60z"/>
</g>
</svg>
